<svg id="YWC" xmlns="http://www.w3.org/2000/svg" width="1000" height="450" viewBox="0 0 1000 450">
  <metadata><?xpacket begin="﻿" id="W5M0MpCehiHzreSzNTczkc9d"?>
<x:xmpmeta xmlns:x="adobe:ns:meta/" x:xmptk="Adobe XMP Core 5.6-c142 79.160924, 2017/07/13-01:06:39        ">
   <rdf:RDF xmlns:rdf="http://www.w3.org/1999/02/22-rdf-syntax-ns#">
      <rdf:Description rdf:about=""/>
   </rdf:RDF>
</x:xmpmeta>
                                                                                                    
                                                                                                    
                                                                                                    
                                                                                                    
                                                                                                    
                                                                                                    
                                                                                                    
                                                                                                    
                                                                                                    
                                                                                                    
                                                                                                    
                                                                                                    
                                                                                                    
                                                                                                    
                                                                                                    
                                                                                                    
                                                                                                    
                                                                                                    
                                                                                                    
                                                                                                    
                           
<?xpacket end="w"?></metadata>
<defs>
    <style>
      .cls-1 {
        font-size: 48.683px;
        font-family: Anurati;
      }

      .cls-1, .cls-3 {
        text-anchor: middle;
      }

      .cls-2 {
        font-family: "Good Times";
      }

      .cls-3 {
        font-size: 129.117px;
        font-family: "ROG Fonts v1.6";
      }

      .cls-4 {
        fill-rule: evenodd;
      }
    </style>
  </defs>
  <text id="Bicentennial" class="cls-1" x="501" y="426"><tspan x="501">B<tspan class="cls-2">icentennial</tspan></tspan></text>
  <rect x="617" y="339" width="349" height="13"/>
  <rect id="Rectangle_10_copy" data-name="Rectangle 10 copy" x="33" y="339" width="331" height="13"/>
  <text id="YWC-2" data-name="YWC" class="cls-3" x="491" y="374"><tspan x="491">YWC</tspan></text>
  <path class="cls-4" d="M43,33H222l30,47H73Z"/>
  <path id="Rectangle_1_copy" data-name="Rectangle 1 copy" class="cls-4" d="M45,238H224l30,47H75Z"/>
  <path id="Rectangle_1_copy_2" data-name="Rectangle 1 copy 2" class="cls-4" d="M168.008,240l0.615-159.8L132.992,77l3.385,162.3Z"/>
  <path class="cls-4" d="M289,33H472L442,79H319Z"/>
  <path class="cls-4" d="M364,77h33l-1,160H364V77Z"/>
  <path class="cls-4" d="M381,285l-17-48,32-1"/>
  <path class="cls-4" d="M554,31l80-1L605,74H557Z"/>
  <path class="cls-4" d="M555,30L523,78l36-4"/>
  <path id="Rectangle_4_copy" data-name="Rectangle 4 copy" class="cls-4" d="M523,286V77l36-7.984V242.553Z"/>
  <path id="Rectangle_4_copy_2" data-name="Rectangle 4 copy 2" class="cls-4" d="M523,285h86l28-42H557Z"/>
  <path id="Rectangle_4_copy_5" data-name="Rectangle 4 copy 5" class="cls-4" d="M672,285h2.519L702,243h-3.554Z"/>
  <path id="Rectangle_4_copy_5-2" data-name="Rectangle 4 copy 5" class="cls-4" d="M703,31h-3.554L672,73l3.519,1"/>
  <path class="cls-4" d="M690,30h13l-5,3h-9Z"/>
  <path id="Rectangle_8_copy" data-name="Rectangle 8 copy" class="cls-4" d="M673,74H660l5-3h9Z"/>
  <path id="Rectangle_8_copy_2" data-name="Rectangle 8 copy 2" class="cls-4" d="M688,243h13l-5,3h-9Z"/>
  <path id="Rectangle_8_copy_3" data-name="Rectangle 8 copy 3" class="cls-4" d="M673,285H660l5-3h9Z"/>
  <path id="Rectangle_4_copy_2-2" data-name="Rectangle 4 copy 2" class="cls-4" d="M637,284l26,1"/>
  <path id="Rectangle_4_copy_4" data-name="Rectangle 4 copy 4" class="cls-4" d="M634,74h28l29-44H661.965Z"/>
  <path id="Rectangle_4_copy_3" data-name="Rectangle 4 copy 3" class="cls-4" d="M637,285h25l27-42H663.965Z"/>
  <path id="Rectangle_5_copy" data-name="Rectangle 5 copy" class="cls-4" d="M776.5,150H838L801.5,94h-63Z"/>
  <path class="cls-4" d="M780.168,32H842L801.344,95H738Z"/>
  <path class="cls-4" d="M869.609,116H884L806.39,217H792Z"/>
  <path id="Rectangle_5_copy_2" data-name="Rectangle 5 copy 2" class="cls-4" d="M907.5,289H846l32.5-49h63Z"/>
  <path id="Rectangle_5_copy_3" data-name="Rectangle 5 copy 3" class="cls-4" d="M904.832,185H843l35.656,56H942Z"/>
</svg>
